<svg width="26" height="18" viewBox="0 0 26 18" fill="none" xmlns="http://www.w3.org/2000/svg">
<path d="M6.51359 8.18582C8.00995 8.18582 9.19824 8.62592 10.0785 9.50611C10.988 10.357 11.4428 11.5159 11.4428 12.9829C11.4428 14.4205 10.9587 15.6235 9.99044 16.5917C9.0222 17.5306 7.62853 18 5.80942 18C3.93163 18 2.49394 17.3692 1.49636 16.1076C0.498788 14.8166 0 13.1883 0 11.2225C0 9.34475 0.440107 7.67237 1.32032 6.20538C2.20054 4.70905 3.33015 3.44744 4.70915 2.42054C6.11749 1.36431 7.55518 0.557459 9.0222 0L9.99044 2.11247C8.93418 2.49389 7.92193 3.05134 6.9537 3.78484C6.0148 4.51834 5.23728 5.3692 4.62113 6.33741C4.03432 7.27629 3.72624 8.2445 3.6969 9.24206C3.81426 9.00734 4.12234 8.77262 4.62113 8.5379C5.14926 8.30318 5.78008 8.18582 6.51359 8.18582ZM20.9051 8.18582C22.4015 8.18582 23.5898 8.62592 24.47 9.50611C25.3795 10.357 25.8343 11.5159 25.8343 12.9829C25.8343 14.4205 25.3502 15.6235 24.3819 16.5917C23.4137 17.5306 22.02 18 20.2009 18C18.3231 18 16.8855 17.3692 15.8879 16.1076C14.8903 14.8166 14.3915 13.1883 14.3915 11.2225C14.3915 9.34475 14.8316 7.67237 15.7118 6.20538C16.592 4.70905 17.7217 3.44744 19.1007 2.42054C20.509 1.36431 21.9467 0.557459 23.4137 0L24.3819 2.11247C23.3257 2.49389 22.3134 3.05134 21.3452 3.78484C20.4063 4.51834 19.6288 5.3692 19.0126 6.33741C18.4258 7.27629 18.1178 8.2445 18.0884 9.24206C18.2058 9.00734 18.5138 8.77262 19.0126 8.5379C19.5408 8.30318 20.1716 8.18582 20.9051 8.18582Z" fill="#00518A"/>
</svg>
